<?xml version="1.0" encoding="UTF-8" standalone="no"?>
<!DOCTYPE svg PUBLIC "-//W3C//DTD SVG 1.1//EN"
 "http://www.w3.org/Graphics/SVG/1.1/DTD/svg11.dtd">
<!-- Generated by graphviz version 2.43.0 (0)
 -->
<!-- Title: list_del Pages: 1 -->
<svg width="151pt" height="66pt"
 viewBox="0.00 0.00 151.00 66.00" xmlns="http://www.w3.org/2000/svg" xmlns:xlink="http://www.w3.org/1999/xlink">
<g id="graph0" class="graph" transform="scale(1 1) rotate(0) translate(4 62)">
<title>list_del</title>
<polygon fill="white" stroke="transparent" points="-4,4 -4,-62 147,-62 147,4 -4,4"/>
<!-- Node1 -->
<g id="node1" class="node">
<title>Node1</title>
<g id="a_node1"><a xlink:title="Delete a node from a list.">
<polygon fill="#bfbfbf" stroke="black" points="0,-19.5 0,-38.5 52,-38.5 52,-19.5 0,-19.5"/>
<text text-anchor="middle" x="26" y="-26.5" font-family="Helvetica,sans-Serif" font-size="10.00">list_del</text>
</a>
</g>
</g>
<!-- Node2 -->
<g id="node2" class="node">
<title>Node2</title>
<g id="a_node2"><a xlink:href="list_8h.html#a7676e0744c4627832d5a7fe22b274e87" target="_top" xlink:title="initialize for circular doubly linked list">
<polygon fill="white" stroke="black" points="89,-38.5 89,-57.5 142,-57.5 142,-38.5 89,-38.5"/>
<text text-anchor="middle" x="115.5" y="-45.5" font-family="Helvetica,sans-Serif" font-size="10.00">list_init</text>
</a>
</g>
</g>
<!-- Node1&#45;&gt;Node2 -->
<g id="edge1" class="edge">
<title>Node1&#45;&gt;Node2</title>
<path fill="none" stroke="midnightblue" d="M52.31,-34.5C60.67,-36.31 70.13,-38.37 79.1,-40.31"/>
<polygon fill="midnightblue" stroke="midnightblue" points="78.43,-43.75 88.95,-42.45 79.92,-36.91 78.43,-43.75"/>
</g>
<!-- Node3 -->
<g id="node3" class="node">
<title>Node3</title>
<g id="a_node3"><a xlink:href="list_8h.html#abe9970acb0538b5d910186545e29144f" target="_top" xlink:title="Link head node and tail node node.">
<polygon fill="white" stroke="black" points="88,-0.5 88,-19.5 143,-19.5 143,-0.5 88,-0.5"/>
<text text-anchor="middle" x="115.5" y="-7.5" font-family="Helvetica,sans-Serif" font-size="10.00">list_link</text>
</a>
</g>
</g>
<!-- Node1&#45;&gt;Node3 -->
<g id="edge2" class="edge">
<title>Node1&#45;&gt;Node3</title>
<path fill="none" stroke="midnightblue" d="M52.31,-23.5C60.29,-21.77 69.27,-19.82 77.88,-17.95"/>
<polygon fill="midnightblue" stroke="midnightblue" points="78.69,-21.36 87.72,-15.81 77.21,-14.52 78.69,-21.36"/>
</g>
</g>
</svg>
