<?xml version="1.0" encoding="UTF-8" standalone="no"?>
<!DOCTYPE svg PUBLIC "-//W3C//DTD SVG 1.1//EN"
 "http://www.w3.org/Graphics/SVG/1.1/DTD/svg11.dtd">
<!-- Generated by graphviz version 2.43.0 (0)
 -->
<!-- Title: src/stimeslice.c Pages: 1 -->
<svg width="100pt" height="196pt"
 viewBox="0.00 0.00 100.00 196.00" xmlns="http://www.w3.org/2000/svg" xmlns:xlink="http://www.w3.org/1999/xlink">
<g id="graph0" class="graph" transform="scale(1 1) rotate(0) translate(4 192)">
<title>src/stimeslice.c</title>
<polygon fill="white" stroke="transparent" points="-4,4 -4,-192 96,-192 96,4 -4,4"/>
<!-- Node1 -->
<g id="node1" class="node">
<title>Node1</title>
<g id="a_node1"><a xlink:title="Cooperative timeslice scheduler implementation.">
<polygon fill="#bfbfbf" stroke="black" points="0,-168.5 0,-187.5 92,-187.5 92,-168.5 0,-168.5"/>
<text text-anchor="middle" x="46" y="-175.5" font-family="Helvetica,sans-Serif" font-size="10.00">src/stimeslice.c</text>
</a>
</g>
</g>
<!-- Node2 -->
<g id="node2" class="node">
<title>Node2</title>
<g id="a_node2"><a xlink:href="stimeslice_8h.html" target="_top" xlink:title="Cooperative timeslice scheduler implementation.">
<polygon fill="white" stroke="black" points="8,-112.5 8,-131.5 84,-131.5 84,-112.5 8,-112.5"/>
<text text-anchor="middle" x="46" y="-119.5" font-family="Helvetica,sans-Serif" font-size="10.00">stimeslice.h</text>
</a>
</g>
</g>
<!-- Node1&#45;&gt;Node2 -->
<g id="edge1" class="edge">
<title>Node1&#45;&gt;Node2</title>
<path fill="none" stroke="midnightblue" d="M46,-168.08C46,-161.01 46,-150.86 46,-141.99"/>
<polygon fill="midnightblue" stroke="midnightblue" points="49.5,-141.75 46,-131.75 42.5,-141.75 49.5,-141.75"/>
</g>
<!-- Node3 -->
<g id="node3" class="node">
<title>Node3</title>
<g id="a_node3"><a xlink:href="slist_8h.html" target="_top" xlink:title="Circular singly linked list implementation.">
<polygon fill="white" stroke="black" points="23,-56.5 23,-75.5 69,-75.5 69,-56.5 23,-56.5"/>
<text text-anchor="middle" x="46" y="-63.5" font-family="Helvetica,sans-Serif" font-size="10.00">slist.h</text>
</a>
</g>
</g>
<!-- Node2&#45;&gt;Node3 -->
<g id="edge2" class="edge">
<title>Node2&#45;&gt;Node3</title>
<path fill="none" stroke="midnightblue" d="M46,-112.08C46,-105.01 46,-94.86 46,-85.99"/>
<polygon fill="midnightblue" stroke="midnightblue" points="49.5,-85.75 46,-75.75 42.5,-85.75 49.5,-85.75"/>
</g>
<!-- Node4 -->
<g id="node4" class="node">
<title>Node4</title>
<g id="a_node4"><a xlink:title=" ">
<polygon fill="white" stroke="#bfbfbf" points="18,-0.5 18,-19.5 74,-19.5 74,-0.5 18,-0.5"/>
<text text-anchor="middle" x="46" y="-7.5" font-family="Helvetica,sans-Serif" font-size="10.00">stddef.h</text>
</a>
</g>
</g>
<!-- Node3&#45;&gt;Node4 -->
<g id="edge3" class="edge">
<title>Node3&#45;&gt;Node4</title>
<path fill="none" stroke="midnightblue" d="M46,-56.08C46,-49.01 46,-38.86 46,-29.99"/>
<polygon fill="midnightblue" stroke="midnightblue" points="49.5,-29.75 46,-19.75 42.5,-29.75 49.5,-29.75"/>
</g>
</g>
</svg>
