<?xml version="1.0" encoding="UTF-8" standalone="no"?>
<!DOCTYPE svg PUBLIC "-//W3C//DTD SVG 1.1//EN"
 "http://www.w3.org/Graphics/SVG/1.1/DTD/svg11.dtd">
<!-- Generated by graphviz version 2.43.0 (0)
 -->
<!-- Title: src/timeslice.c Pages: 1 -->
<svg width="95pt" height="196pt"
 viewBox="0.00 0.00 95.00 196.00" xmlns="http://www.w3.org/2000/svg" xmlns:xlink="http://www.w3.org/1999/xlink">
<g id="graph0" class="graph" transform="scale(1 1) rotate(0) translate(4 192)">
<title>src/timeslice.c</title>
<polygon fill="white" stroke="transparent" points="-4,4 -4,-192 91,-192 91,4 -4,4"/>
<!-- Node1 -->
<g id="node1" class="node">
<title>Node1</title>
<g id="a_node1"><a xlink:title="Cooperative timeslice scheduler implementation.">
<polygon fill="#bfbfbf" stroke="black" points="0,-168.5 0,-187.5 87,-187.5 87,-168.5 0,-168.5"/>
<text text-anchor="middle" x="43.5" y="-175.5" font-family="Helvetica,sans-Serif" font-size="10.00">src/timeslice.c</text>
</a>
</g>
</g>
<!-- Node2 -->
<g id="node2" class="node">
<title>Node2</title>
<g id="a_node2"><a xlink:href="timeslice_8h.html" target="_top" xlink:title="Cooperative timeslice scheduler implementation.">
<polygon fill="white" stroke="black" points="8,-112.5 8,-131.5 79,-131.5 79,-112.5 8,-112.5"/>
<text text-anchor="middle" x="43.5" y="-119.5" font-family="Helvetica,sans-Serif" font-size="10.00">timeslice.h</text>
</a>
</g>
</g>
<!-- Node1&#45;&gt;Node2 -->
<g id="edge1" class="edge">
<title>Node1&#45;&gt;Node2</title>
<path fill="none" stroke="midnightblue" d="M43.5,-168.08C43.5,-161.01 43.5,-150.86 43.5,-141.99"/>
<polygon fill="midnightblue" stroke="midnightblue" points="47,-141.75 43.5,-131.75 40,-141.75 47,-141.75"/>
</g>
<!-- Node3 -->
<g id="node3" class="node">
<title>Node3</title>
<g id="a_node3"><a xlink:href="list_8h.html" target="_top" xlink:title="Simple circular doubly linked list implementation.">
<polygon fill="white" stroke="black" points="23,-56.5 23,-75.5 64,-75.5 64,-56.5 23,-56.5"/>
<text text-anchor="middle" x="43.5" y="-63.5" font-family="Helvetica,sans-Serif" font-size="10.00">list.h</text>
</a>
</g>
</g>
<!-- Node2&#45;&gt;Node3 -->
<g id="edge2" class="edge">
<title>Node2&#45;&gt;Node3</title>
<path fill="none" stroke="midnightblue" d="M43.5,-112.08C43.5,-105.01 43.5,-94.86 43.5,-85.99"/>
<polygon fill="midnightblue" stroke="midnightblue" points="47,-85.75 43.5,-75.75 40,-85.75 47,-85.75"/>
</g>
<!-- Node4 -->
<g id="node4" class="node">
<title>Node4</title>
<g id="a_node4"><a xlink:title=" ">
<polygon fill="white" stroke="#bfbfbf" points="15.5,-0.5 15.5,-19.5 71.5,-19.5 71.5,-0.5 15.5,-0.5"/>
<text text-anchor="middle" x="43.5" y="-7.5" font-family="Helvetica,sans-Serif" font-size="10.00">stddef.h</text>
</a>
</g>
</g>
<!-- Node3&#45;&gt;Node4 -->
<g id="edge3" class="edge">
<title>Node3&#45;&gt;Node4</title>
<path fill="none" stroke="midnightblue" d="M43.5,-56.08C43.5,-49.01 43.5,-38.86 43.5,-29.99"/>
<polygon fill="midnightblue" stroke="midnightblue" points="47,-29.75 43.5,-19.75 40,-29.75 47,-29.75"/>
</g>
</g>
</svg>
